%TF.GenerationSoftware,KiCad,Pcbnew,(5.1.6)-1*%
%TF.CreationDate,2024-04-21T09:45:17-05:00*%
%TF.ProjectId,lcd_connector,6c63645f-636f-46e6-9e65-63746f722e6b,rev?*%
%TF.SameCoordinates,Original*%
%TF.FileFunction,Soldermask,Bot*%
%TF.FilePolarity,Negative*%
%FSLAX46Y46*%
G04 Gerber Fmt 4.6, Leading zero omitted, Abs format (unit mm)*
G04 Created by KiCad (PCBNEW (5.1.6)-1) date 2024-04-21 09:45:17*
%MOMM*%
%LPD*%
G01*
G04 APERTURE LIST*
%ADD10C,2.300000*%
G04 APERTURE END LIST*
D10*
%TO.C,R1*%
X2540000Y67310000D03*
X10160000Y67310000D03*
%TD*%
%TO.C,R2*%
X10160000Y69850000D03*
X2540000Y69850000D03*
%TD*%
%TO.C,J4*%
X12700000Y76200000D03*
%TD*%
%TO.C,J5*%
X15240000Y76200000D03*
%TD*%
%TO.C,J1*%
X2540000Y76200000D03*
%TD*%
%TO.C,M1*%
X35560000Y63500000D03*
X33020000Y63500000D03*
X30480000Y63500000D03*
X27940000Y63500000D03*
X25400000Y63500000D03*
X22860000Y63500000D03*
X20320000Y63500000D03*
X17780000Y63500000D03*
X15240000Y63500000D03*
X12700000Y63500000D03*
X10160000Y63500000D03*
X7620000Y63500000D03*
X5080000Y63500000D03*
X2540000Y63500000D03*
%TD*%
%TO.C,J7*%
X27940000Y76200000D03*
%TD*%
%TO.C,J6*%
X17780000Y76200000D03*
%TD*%
%TO.C,J3*%
X7620000Y76200000D03*
%TD*%
%TO.C,J8*%
X22860000Y76200000D03*
%TD*%
%TO.C,J2*%
X5080000Y76200000D03*
%TD*%
%TO.C,J8*%
X33020000Y76200000D03*
%TD*%
%TO.C,R1*%
X2540000Y46990000D03*
X10160000Y46990000D03*
%TD*%
%TO.C,R2*%
X10160000Y49530000D03*
X2540000Y49530000D03*
%TD*%
%TO.C,J4*%
X12700000Y55880000D03*
%TD*%
%TO.C,J5*%
X15240000Y55880000D03*
%TD*%
%TO.C,J1*%
X2540000Y55880000D03*
%TD*%
%TO.C,M1*%
X35560000Y43180000D03*
X33020000Y43180000D03*
X30480000Y43180000D03*
X27940000Y43180000D03*
X25400000Y43180000D03*
X22860000Y43180000D03*
X20320000Y43180000D03*
X17780000Y43180000D03*
X15240000Y43180000D03*
X12700000Y43180000D03*
X10160000Y43180000D03*
X7620000Y43180000D03*
X5080000Y43180000D03*
X2540000Y43180000D03*
%TD*%
%TO.C,J7*%
X27940000Y55880000D03*
%TD*%
%TO.C,J6*%
X17780000Y55880000D03*
%TD*%
%TO.C,J3*%
X7620000Y55880000D03*
%TD*%
%TO.C,J8*%
X22860000Y55880000D03*
%TD*%
%TO.C,J2*%
X5080000Y55880000D03*
%TD*%
%TO.C,J8*%
X33020000Y55880000D03*
%TD*%
%TO.C,R1*%
X2540000Y26670000D03*
X10160000Y26670000D03*
%TD*%
%TO.C,R2*%
X10160000Y29210000D03*
X2540000Y29210000D03*
%TD*%
%TO.C,J4*%
X12700000Y35560000D03*
%TD*%
%TO.C,J5*%
X15240000Y35560000D03*
%TD*%
%TO.C,J1*%
X2540000Y35560000D03*
%TD*%
%TO.C,M1*%
X35560000Y22860000D03*
X33020000Y22860000D03*
X30480000Y22860000D03*
X27940000Y22860000D03*
X25400000Y22860000D03*
X22860000Y22860000D03*
X20320000Y22860000D03*
X17780000Y22860000D03*
X15240000Y22860000D03*
X12700000Y22860000D03*
X10160000Y22860000D03*
X7620000Y22860000D03*
X5080000Y22860000D03*
X2540000Y22860000D03*
%TD*%
%TO.C,J7*%
X27940000Y35560000D03*
%TD*%
%TO.C,J6*%
X17780000Y35560000D03*
%TD*%
%TO.C,J3*%
X7620000Y35560000D03*
%TD*%
%TO.C,J8*%
X22860000Y35560000D03*
%TD*%
%TO.C,J2*%
X5080000Y35560000D03*
%TD*%
%TO.C,J8*%
X33020000Y35560000D03*
%TD*%
%TO.C,J8*%
X33020000Y15240000D03*
%TD*%
%TO.C,J1*%
X2540000Y15240000D03*
%TD*%
%TO.C,J2*%
X5080000Y15240000D03*
%TD*%
%TO.C,J3*%
X7620000Y15240000D03*
%TD*%
%TO.C,J4*%
X12700000Y15240000D03*
%TD*%
%TO.C,J5*%
X15240000Y15240000D03*
%TD*%
%TO.C,J6*%
X17780000Y15240000D03*
%TD*%
%TO.C,J7*%
X27940000Y15240000D03*
%TD*%
%TO.C,J8*%
X22860000Y15240000D03*
%TD*%
%TO.C,M1*%
X2540000Y2540000D03*
X5080000Y2540000D03*
X7620000Y2540000D03*
X10160000Y2540000D03*
X12700000Y2540000D03*
X15240000Y2540000D03*
X17780000Y2540000D03*
X20320000Y2540000D03*
X22860000Y2540000D03*
X25400000Y2540000D03*
X27940000Y2540000D03*
X30480000Y2540000D03*
X33020000Y2540000D03*
X35560000Y2540000D03*
%TD*%
%TO.C,R1*%
X10160000Y6350000D03*
X2540000Y6350000D03*
%TD*%
%TO.C,R2*%
X2540000Y8890000D03*
X10160000Y8890000D03*
%TD*%
X15240000Y29210000D03*
X30480000Y29210000D03*
X17780000Y26670000D03*
X25400000Y26670000D03*
X33020000Y31750000D03*
X22860000Y31750000D03*
X20320000Y31750000D03*
X10160000Y31750000D03*
X15240000Y49530000D03*
X30480000Y49530000D03*
X17780000Y46990000D03*
X25400000Y46990000D03*
X33020000Y52070000D03*
X22860000Y52070000D03*
X20320000Y52070000D03*
X10160000Y52070000D03*
X15240000Y69850000D03*
X30480000Y69850000D03*
X17780000Y67310000D03*
X25400000Y67310000D03*
X33020000Y72390000D03*
X22860000Y72390000D03*
X20320000Y72390000D03*
X10160000Y72390000D03*
X30480000Y8890000D03*
X15240000Y8890000D03*
X25400000Y6350000D03*
X17780000Y6350000D03*
X33020000Y11430000D03*
X22860000Y11430000D03*
X10160000Y11430000D03*
X20320000Y11430000D03*
M02*
