M48
; DRILL file {KiCad (5.1.6)-1} date 04/21/24 09:45:37
; FORMAT={-:-/ absolute / metric / decimal}
; #@! TF.CreationDate,2024-04-21T09:45:37-05:00
; #@! TF.GenerationSoftware,Kicad,Pcbnew,(5.1.6)-1
FMAT,2
METRIC
T1C0.800
%
G90
G05
T1
X35.56Y2.54
X33.02Y2.54
X30.48Y2.54
X27.94Y2.54
X25.4Y2.54
X22.86Y2.54
X20.32Y2.54
X17.78Y2.54
X15.24Y2.54
X12.7Y2.54
X10.16Y2.54
X7.62Y2.54
X5.08Y2.54
X2.54Y2.54
X2.54Y6.35
X10.16Y6.35
X17.78Y6.35
X25.4Y6.35
X30.48Y8.89
X15.24Y8.89
X10.16Y8.89
X2.54Y8.89
X10.16Y11.43
X20.32Y11.43
X22.86Y11.43
X33.02Y11.43
X33.02Y15.24
X27.94Y15.24
X22.86Y15.24
X17.78Y15.24
X15.24Y15.24
X12.7Y15.24
X7.62Y15.24
X5.08Y15.24
X2.54Y15.24
X2.54Y22.86
X5.08Y22.86
X7.62Y22.86
X10.16Y22.86
X12.7Y22.86
X15.24Y22.86
X17.78Y22.86
X20.32Y22.86
X22.86Y22.86
X25.4Y22.86
X27.94Y22.86
X30.48Y22.86
X33.02Y22.86
X35.56Y22.86
X25.4Y26.67
X17.78Y26.67
X10.16Y26.67
X2.54Y26.67
X2.54Y29.21
X10.16Y29.21
X15.24Y29.21
X30.48Y29.21
X33.02Y31.75
X22.86Y31.75
X20.32Y31.75
X10.16Y31.75
X2.54Y35.56
X5.08Y35.56
X7.62Y35.56
X12.7Y35.56
X15.24Y35.56
X17.78Y35.56
X22.86Y35.56
X27.94Y35.56
X33.02Y35.56
X35.56Y43.18
X33.02Y43.18
X30.48Y43.18
X27.94Y43.18
X25.4Y43.18
X22.86Y43.18
X20.32Y43.18
X17.78Y43.18
X15.24Y43.18
X12.7Y43.18
X10.16Y43.18
X7.62Y43.18
X5.08Y43.18
X2.54Y43.18
X2.54Y46.99
X10.16Y46.99
X17.78Y46.99
X25.4Y46.99
X30.48Y49.53
X15.24Y49.53
X10.16Y49.53
X2.54Y49.53
X10.16Y52.07
X20.32Y52.07
X22.86Y52.07
X33.02Y52.07
X33.02Y55.88
X27.94Y55.88
X22.86Y55.88
X17.78Y55.88
X15.24Y55.88
X12.7Y55.88
X7.62Y55.88
X5.08Y55.88
X2.54Y55.88
X2.54Y63.5
X5.08Y63.5
X7.62Y63.5
X10.16Y63.5
X12.7Y63.5
X15.24Y63.5
X17.78Y63.5
X20.32Y63.5
X22.86Y63.5
X25.4Y63.5
X27.94Y63.5
X30.48Y63.5
X33.02Y63.5
X35.56Y63.5
X25.4Y67.31
X17.78Y67.31
X10.16Y67.31
X2.54Y67.31
X2.54Y69.85
X10.16Y69.85
X15.24Y69.85
X30.48Y69.85
X33.02Y72.39
X22.86Y72.39
X20.32Y72.39
X10.16Y72.39
X2.54Y76.2
X5.08Y76.2
X7.62Y76.2
X12.7Y76.2
X15.24Y76.2
X17.78Y76.2
X22.86Y76.2
X27.94Y76.2
X33.02Y76.2
T0
M30
