%TF.GenerationSoftware,KiCad,Pcbnew,(5.1.6)-1*%
%TF.CreationDate,2024-05-03T12:17:57-05:00*%
%TF.ProjectId,audioBoard,61756469-6f42-46f6-9172-642e6b696361,rev?*%
%TF.SameCoordinates,PX2d4f1f0PY6bcb370*%
%TF.FileFunction,Soldermask,Bot*%
%TF.FilePolarity,Negative*%
%FSLAX46Y46*%
G04 Gerber Fmt 4.6, Leading zero omitted, Abs format (unit mm)*
G04 Created by KiCad (PCBNEW (5.1.6)-1) date 2024-05-03 12:17:57*
%MOMM*%
%LPD*%
G01*
G04 APERTURE LIST*
%ADD10C,2.200000*%
%ADD11C,3.200000*%
%ADD12O,2.200000X3.470000*%
%ADD13O,2.200000X3.570000*%
G04 APERTURE END LIST*
D10*
%TO.C,J7*%
X3290000Y53340000D03*
X3290000Y50800000D03*
X3290000Y48260000D03*
X3290000Y45720000D03*
%TD*%
D11*
%TO.C,REF\u002A\u002A*%
X61500000Y39510000D03*
%TD*%
%TO.C,REF\u002A\u002A*%
X3500000Y39510000D03*
%TD*%
%TO.C,REF\u002A\u002A*%
X3500000Y65510000D03*
%TD*%
%TO.C,REF\u002A\u002A*%
X3500000Y16510000D03*
%TD*%
%TO.C,REF\u002A\u002A*%
X61500000Y16510000D03*
%TD*%
%TO.C,REF\u002A\u002A*%
X61500000Y65510000D03*
%TD*%
D10*
%TO.C,J1*%
X43930000Y30480000D03*
X41390000Y30480000D03*
X38850000Y30480000D03*
X36310000Y30480000D03*
X33770000Y30480000D03*
X31230000Y30480000D03*
X28690000Y30480000D03*
X26150000Y30480000D03*
%TD*%
%TO.C,J3*%
X51550000Y38100000D03*
X49010000Y38100000D03*
%TD*%
%TO.C,J4*%
X54090000Y6350000D03*
X51550000Y6350000D03*
X49010000Y6350000D03*
X46470000Y6350000D03*
X43930000Y6350000D03*
X41390000Y6350000D03*
X38850000Y6350000D03*
X36310000Y6350000D03*
%TD*%
%TO.C,U1*%
X15990000Y50800000D03*
X15990000Y48260000D03*
X15990000Y45720000D03*
X15990000Y43180000D03*
X15990000Y53340000D03*
X15990000Y55880000D03*
X15990000Y58420000D03*
X18530000Y43180000D03*
X21070000Y43180000D03*
X23610000Y43180000D03*
X26150000Y43180000D03*
X28690000Y43180000D03*
X31230000Y43180000D03*
X33770000Y43180000D03*
X36310000Y43180000D03*
X38850000Y43180000D03*
X41390000Y43180000D03*
X43930000Y43180000D03*
X46470000Y43180000D03*
X49010000Y43180000D03*
X18530000Y58420000D03*
X21070000Y58420000D03*
X23610000Y58420000D03*
X26150000Y58420000D03*
X28690000Y58420000D03*
X31230000Y58420000D03*
X33770000Y58420000D03*
X36310000Y58420000D03*
X38850000Y58420000D03*
X41390000Y58420000D03*
X43930000Y58420000D03*
X46470000Y58420000D03*
X49010000Y58420000D03*
%TD*%
%TO.C,J6*%
X49010000Y64770000D03*
X46470000Y64770000D03*
X43930000Y64770000D03*
%TD*%
D12*
%TO.C,J2*%
X56630000Y18415000D03*
D13*
X56630000Y14605000D03*
D12*
X54090000Y18415000D03*
D13*
X54090000Y14605000D03*
D12*
X51550000Y18415000D03*
D13*
X51550000Y14605000D03*
D12*
X49010000Y18415000D03*
D13*
X49010000Y14605000D03*
D12*
X46470000Y18415000D03*
D13*
X46470000Y14605000D03*
D12*
X43930000Y18415000D03*
D13*
X43930000Y14605000D03*
D12*
X41390000Y18415000D03*
D13*
X41390000Y14605000D03*
D12*
X38850000Y18415000D03*
D13*
X38850000Y14605000D03*
D12*
X36310000Y18415000D03*
D13*
X36310000Y14605000D03*
D12*
X33770000Y18415000D03*
D13*
X33770000Y14605000D03*
D12*
X31230000Y18415000D03*
D13*
X31230000Y14605000D03*
D12*
X28690000Y18415000D03*
D13*
X28690000Y14605000D03*
D12*
X26150000Y18415000D03*
D13*
X26150000Y14605000D03*
D12*
X23610000Y18415000D03*
D13*
X23610000Y14605000D03*
D12*
X21070000Y18415000D03*
D13*
X21070000Y14605000D03*
D12*
X18530000Y18415000D03*
D13*
X18530000Y14605000D03*
D12*
X15990000Y18415000D03*
D13*
X15990000Y14605000D03*
D12*
X13450000Y18415000D03*
D13*
X13450000Y14605000D03*
D12*
X10910000Y18415000D03*
D13*
X10910000Y14605000D03*
D10*
X8370000Y17780000D03*
D13*
X8370000Y14605000D03*
%TD*%
D10*
X8370000Y20320000D03*
X4770000Y22010000D03*
X2230000Y22010000D03*
X56630000Y53340000D03*
X56630000Y58420000D03*
X56630000Y55880000D03*
X56630000Y48260000D03*
X56630000Y50800000D03*
X56630000Y45720000D03*
X56630000Y29210000D03*
X56630000Y24130000D03*
X56630000Y31750000D03*
X56630000Y26670000D03*
X19800000Y29210000D03*
X19800000Y24130000D03*
X19800000Y31750000D03*
X19800000Y26670000D03*
X38850000Y49530000D03*
X33770000Y49530000D03*
X36310000Y49530000D03*
X28690000Y49530000D03*
X26150000Y49530000D03*
X31230000Y49530000D03*
X28690000Y52070000D03*
X33770000Y52070000D03*
X38850000Y52070000D03*
X59170000Y55880000D03*
X59170000Y50800000D03*
X59170000Y45720000D03*
X59170000Y29210000D03*
X59170000Y24130000D03*
X17260000Y29210000D03*
X17260000Y24130000D03*
X45200000Y25400000D03*
X56630000Y38100000D03*
X56630000Y11430000D03*
X54090000Y38100000D03*
X28690000Y11430000D03*
X38850000Y25400000D03*
X26150000Y11430000D03*
X41390000Y25400000D03*
X43930000Y11430000D03*
X40120000Y36830000D03*
X10910000Y11430000D03*
X10910000Y55880000D03*
X8370000Y11430000D03*
X8370000Y55880000D03*
X46470000Y36830000D03*
X14720000Y36830000D03*
X49010000Y40640000D03*
X4770000Y26460000D03*
X43930000Y45720000D03*
X43930000Y40640000D03*
M02*
