M48
; DRILL file {KiCad (5.1.6)-1} date 05/03/24 12:21:27
; FORMAT={-:-/ absolute / metric / decimal}
; #@! TF.CreationDate,2024-05-03T12:21:27-05:00
; #@! TF.GenerationSoftware,Kicad,Pcbnew,(5.1.6)-1
FMAT,2
METRIC
T1C0.800
T2C1.000
T3C3.200
%
G90
G05
T1
X56.63Y11.43
X43.93Y11.43
X28.69Y11.43
X26.15Y11.43
X10.91Y11.43
X8.37Y11.43
X8.37Y15.24
X10.91Y15.24
X13.45Y15.24
X15.99Y15.24
X18.53Y15.24
X21.07Y15.24
X23.61Y15.24
X26.15Y15.24
X28.69Y15.24
X31.23Y15.24
X33.77Y15.24
X36.31Y15.24
X38.85Y15.24
X41.39Y15.24
X43.93Y15.24
X46.47Y15.24
X49.01Y15.24
X51.55Y15.24
X54.09Y15.24
X56.63Y15.24
X56.63Y17.78
X54.09Y17.78
X51.55Y17.78
X49.01Y17.78
X46.47Y17.78
X43.93Y17.78
X41.39Y17.78
X38.85Y17.78
X36.31Y17.78
X33.77Y17.78
X31.23Y17.78
X28.69Y17.78
X26.15Y17.78
X23.61Y17.78
X21.07Y17.78
X18.53Y17.78
X15.99Y17.78
X13.45Y17.78
X10.91Y17.78
X8.37Y17.78
X8.37Y20.32
X4.77Y22.01
X2.23Y22.01
X17.26Y24.13
X19.8Y24.13
X56.63Y24.13
X59.17Y24.13
X45.2Y25.4
X41.39Y25.4
X38.85Y25.4
X4.77Y26.46
X56.63Y26.67
X19.8Y26.67
X17.26Y29.21
X19.8Y29.21
X56.63Y29.21
X59.17Y29.21
X56.63Y31.75
X19.8Y31.75
X14.72Y36.83
X40.12Y36.83
X46.47Y36.83
X56.63Y38.1
X54.09Y38.1
X43.93Y40.64
X49.01Y40.64
X49.01Y43.18
X46.47Y43.18
X43.93Y43.18
X41.39Y43.18
X38.85Y43.18
X36.31Y43.18
X33.77Y43.18
X31.23Y43.18
X28.69Y43.18
X26.15Y43.18
X23.61Y43.18
X21.07Y43.18
X18.53Y43.18
X15.99Y43.18
X15.99Y45.72
X43.93Y45.72
X56.63Y45.72
X59.17Y45.72
X56.63Y48.26
X15.99Y48.26
X26.15Y49.53
X28.69Y49.53
X31.23Y49.53
X33.77Y49.53
X36.31Y49.53
X38.85Y49.53
X59.17Y50.8
X56.63Y50.8
X15.99Y50.8
X28.69Y52.07
X33.77Y52.07
X38.85Y52.07
X56.63Y53.34
X15.99Y53.34
X8.37Y55.88
X10.91Y55.88
X15.99Y55.88
X56.63Y55.88
X59.17Y55.88
X56.63Y58.42
X49.01Y58.42
X46.47Y58.42
X43.93Y58.42
X41.39Y58.42
X38.85Y58.42
X36.31Y58.42
X33.77Y58.42
X31.23Y58.42
X28.69Y58.42
X26.15Y58.42
X23.61Y58.42
X21.07Y58.42
X18.53Y58.42
X15.99Y58.42
T2
X36.31Y6.35
X38.85Y6.35
X41.39Y6.35
X43.93Y6.35
X46.47Y6.35
X49.01Y6.35
X51.55Y6.35
X54.09Y6.35
X43.93Y30.48
X41.39Y30.48
X38.85Y30.48
X36.31Y30.48
X33.77Y30.48
X31.23Y30.48
X28.69Y30.48
X26.15Y30.48
X49.01Y38.1
X51.55Y38.1
X3.29Y45.72
X3.29Y48.26
X3.29Y50.8
X3.29Y53.34
X49.01Y64.77
X46.47Y64.77
X43.93Y64.77
T3
X3.5Y16.51
X61.5Y16.51
X61.5Y39.51
X3.5Y39.51
X3.5Y65.51
X61.5Y65.51
T0
M30
